<mxfile host="app.diagrams.net" modified="2022-09-08T03:20:06.120Z" agent="5.0 (Windows NT 10.0; Win64; x64) AppleWebKit/537.36 (KHTML, like Gecko) Chrome/104.0.0.0 Safari/537.36" etag="Fsnogvgy3bYqm2YUcVWH" version="20.2.7" type="github">
  <diagram id="Y9JxlMoh4VsjR_KCA-AE" name="devops">
    <mxGraphModel dx="2249" dy="762" grid="1" gridSize="10" guides="1" tooltips="1" connect="1" arrows="1" fold="1" page="1" pageScale="1" pageWidth="827" pageHeight="1169" math="0" shadow="0">
      <root>
        <mxCell id="0" />
        <mxCell id="1" parent="0" />
        <mxCell id="DUqm6WeY4P3lKgYE2ZcJ-2" value="CI &amp; CD" style="swimlane;childLayout=stackLayout;resizeParent=1;resizeParentMax=0;horizontal=1;startSize=20;horizontalStack=0;fontSize=16;fontColor=#14161a;" parent="1" vertex="1">
          <mxGeometry x="-650" y="40" width="1350" height="1270" as="geometry" />
        </mxCell>
        <mxCell id="peeEBgyrgm-aAJhJXFA5-65" style="edgeStyle=orthogonalEdgeStyle;rounded=0;orthogonalLoop=1;jettySize=auto;html=1;fontSize=16;" edge="1" parent="DUqm6WeY4P3lKgYE2ZcJ-2" source="peeEBgyrgm-aAJhJXFA5-74" target="DUqm6WeY4P3lKgYE2ZcJ-7">
          <mxGeometry relative="1" as="geometry" />
        </mxCell>
        <mxCell id="DUqm6WeY4P3lKgYE2ZcJ-6" value="Dev" style="swimlane;startSize=20;horizontal=0;fontSize=16;fontColor=#14161a;" parent="DUqm6WeY4P3lKgYE2ZcJ-2" vertex="1">
          <mxGeometry y="20" width="1350" height="500" as="geometry" />
        </mxCell>
        <mxCell id="DUqm6WeY4P3lKgYE2ZcJ-7" value="开发" style="shape=umlActor;verticalLabelPosition=bottom;labelBackgroundColor=#ffffff;verticalAlign=top;html=1;fontSize=16;fontColor=#14161a;" parent="DUqm6WeY4P3lKgYE2ZcJ-6" vertex="1">
          <mxGeometry x="60" y="37.5" width="30" height="60" as="geometry" />
        </mxCell>
        <mxCell id="DUqm6WeY4P3lKgYE2ZcJ-8" value="提交应用代码" style="html=1;fontSize=16;fontColor=#14161a;" parent="DUqm6WeY4P3lKgYE2ZcJ-6" vertex="1">
          <mxGeometry x="200" y="42.5" width="120" height="50" as="geometry" />
        </mxCell>
        <mxCell id="DUqm6WeY4P3lKgYE2ZcJ-9" value="" style="edgeStyle=orthogonalEdgeStyle;rounded=0;orthogonalLoop=1;jettySize=auto;html=1;endArrow=classic;endFill=1;fontSize=16;fontColor=#14161a;" parent="DUqm6WeY4P3lKgYE2ZcJ-6" source="DUqm6WeY4P3lKgYE2ZcJ-7" target="DUqm6WeY4P3lKgYE2ZcJ-8" edge="1">
          <mxGeometry relative="1" as="geometry">
            <mxPoint x="200" y="100" as="targetPoint" />
          </mxGeometry>
        </mxCell>
        <mxCell id="DUqm6WeY4P3lKgYE2ZcJ-10" style="edgeStyle=orthogonalEdgeStyle;rounded=0;sketch=0;orthogonalLoop=1;jettySize=auto;html=1;strokeWidth=1;startSize=6;endSize=6;sourcePerimeterSpacing=0;targetPerimeterSpacing=0;" parent="DUqm6WeY4P3lKgYE2ZcJ-6" source="DUqm6WeY4P3lKgYE2ZcJ-13" target="peeEBgyrgm-aAJhJXFA5-20" edge="1">
          <mxGeometry relative="1" as="geometry">
            <mxPoint x="920" y="221.5" as="targetPoint" />
          </mxGeometry>
        </mxCell>
        <mxCell id="DUqm6WeY4P3lKgYE2ZcJ-11" value="chart" style="edgeLabel;html=1;align=center;verticalAlign=middle;resizable=0;points=[];" parent="DUqm6WeY4P3lKgYE2ZcJ-10" vertex="1" connectable="0">
          <mxGeometry x="-0.0545" relative="1" as="geometry">
            <mxPoint as="offset" />
          </mxGeometry>
        </mxCell>
        <mxCell id="DUqm6WeY4P3lKgYE2ZcJ-12" style="edgeStyle=orthogonalEdgeStyle;rounded=0;sketch=0;orthogonalLoop=1;jettySize=auto;html=1;strokeWidth=1;startSize=6;endSize=6;sourcePerimeterSpacing=0;targetPerimeterSpacing=0;" parent="DUqm6WeY4P3lKgYE2ZcJ-6" source="DUqm6WeY4P3lKgYE2ZcJ-13" target="DUqm6WeY4P3lKgYE2ZcJ-34" edge="1">
          <mxGeometry relative="1" as="geometry" />
        </mxCell>
        <mxCell id="DUqm6WeY4P3lKgYE2ZcJ-13" value="前端代码" style="html=1;fontSize=16;fontColor=#14161a;" parent="DUqm6WeY4P3lKgYE2ZcJ-6" vertex="1">
          <mxGeometry x="860" y="92.5" width="120" height="50" as="geometry" />
        </mxCell>
        <mxCell id="DUqm6WeY4P3lKgYE2ZcJ-15" value="构建" style="edgeStyle=orthogonalEdgeStyle;rounded=0;orthogonalLoop=1;jettySize=auto;html=1;endArrow=openThin;endFill=0;fontSize=14;fontColor=#14161a;" parent="DUqm6WeY4P3lKgYE2ZcJ-6" source="DUqm6WeY4P3lKgYE2ZcJ-13" target="peeEBgyrgm-aAJhJXFA5-23" edge="1">
          <mxGeometry relative="1" as="geometry">
            <mxPoint x="1147.75" y="227.5" as="targetPoint" />
          </mxGeometry>
        </mxCell>
        <mxCell id="peeEBgyrgm-aAJhJXFA5-7" style="edgeStyle=orthogonalEdgeStyle;rounded=0;orthogonalLoop=1;jettySize=auto;html=1;fontSize=16;" edge="1" parent="DUqm6WeY4P3lKgYE2ZcJ-6" source="DUqm6WeY4P3lKgYE2ZcJ-24" target="peeEBgyrgm-aAJhJXFA5-3">
          <mxGeometry relative="1" as="geometry" />
        </mxCell>
        <mxCell id="DUqm6WeY4P3lKgYE2ZcJ-24" value="进入到代码所在的根路径" style="rounded=0;whiteSpace=wrap;html=1;fontSize=16;fontColor=#14161a;" parent="DUqm6WeY4P3lKgYE2ZcJ-6" vertex="1">
          <mxGeometry x="383" y="42.5" width="120" height="50" as="geometry" />
        </mxCell>
        <mxCell id="DUqm6WeY4P3lKgYE2ZcJ-25" value="" style="edgeStyle=orthogonalEdgeStyle;rounded=0;orthogonalLoop=1;jettySize=auto;html=1;endArrow=classic;endFill=1;fontSize=16;fontColor=#14161a;" parent="DUqm6WeY4P3lKgYE2ZcJ-6" source="DUqm6WeY4P3lKgYE2ZcJ-8" target="DUqm6WeY4P3lKgYE2ZcJ-24" edge="1">
          <mxGeometry relative="1" as="geometry">
            <mxPoint x="-275" y="207.5" as="sourcePoint" />
            <mxPoint x="45" y="207.5" as="targetPoint" />
          </mxGeometry>
        </mxCell>
        <mxCell id="DUqm6WeY4P3lKgYE2ZcJ-26" value="" style="sketch=0;aspect=fixed;html=1;points=[];align=center;image;fontSize=16;image=img/lib/mscae/Docker.svg;fontColor=#14161a;" parent="DUqm6WeY4P3lKgYE2ZcJ-6" vertex="1">
          <mxGeometry x="1170" y="390" width="60" height="49.2" as="geometry" />
        </mxCell>
        <mxCell id="DUqm6WeY4P3lKgYE2ZcJ-27" value="package" style="edgeStyle=orthogonalEdgeStyle;rounded=0;sketch=0;orthogonalLoop=1;jettySize=auto;html=1;strokeWidth=1;startSize=6;endSize=6;sourcePerimeterSpacing=0;targetPerimeterSpacing=0;fontSize=16;" parent="DUqm6WeY4P3lKgYE2ZcJ-6" source="peeEBgyrgm-aAJhJXFA5-18" target="DUqm6WeY4P3lKgYE2ZcJ-32" edge="1">
          <mxGeometry relative="1" as="geometry">
            <mxPoint x="740" y="270" as="sourcePoint" />
          </mxGeometry>
        </mxCell>
        <mxCell id="DUqm6WeY4P3lKgYE2ZcJ-31" value="上传" style="edgeStyle=orthogonalEdgeStyle;rounded=0;sketch=0;orthogonalLoop=1;jettySize=auto;html=1;strokeWidth=1;startSize=6;endSize=6;sourcePerimeterSpacing=0;targetPerimeterSpacing=0;fontSize=16;" parent="DUqm6WeY4P3lKgYE2ZcJ-6" source="DUqm6WeY4P3lKgYE2ZcJ-32" target="peeEBgyrgm-aAJhJXFA5-89" edge="1">
          <mxGeometry relative="1" as="geometry" />
        </mxCell>
        <mxCell id="DUqm6WeY4P3lKgYE2ZcJ-32" value="" style="shape=image;verticalLabelPosition=bottom;labelBackgroundColor=default;verticalAlign=top;aspect=fixed;imageAspect=0;image=data:image/svg+xml,PHN2ZyB4bWxuczp4bGluaz0iaHR0cDovL3d3dy53My5vcmcvMTk5OS94bGluayIgeG1sbnM9Imh0dHA6Ly93d3cudzMub3JnLzIwMDAvc3ZnIiB3aWR0aD0iMzA0IiB2aWV3Qm94PSIwIDAgMzA0IDM1MSIgaGVpZ2h0PSIzNTEiPiYjeGE7PG1hc2sgZmlsbD0iI2ZmZiIgaWQ9ImEiPiYjeGE7PHBhdGggZmlsbC1ydWxlPSJldmVub2RkIiBmaWxsPSIjZmZmIiBkPSJtMCAwaDMxMy4zMDMxNTV2MTU5Ljg2NDg2NWgtMzEzLjMwMzE1NXoiLz4mI3hhOzwvbWFzaz4mI3hhOzxtYXNrIGZpbGw9IiNmZmYiIGlkPSJiIj4mI3hhOzxwYXRoIGZpbGwtcnVsZT0iZXZlbm9kZCIgZmlsbD0iI2ZmZiIgZD0ibTAgMGgzMTMuMzAzMTU1djE1OS44NjQ4NjVoLTMxMy4zMDMxNTV6Ii8+JiN4YTs8L21hc2s+JiN4YTs8ZyB0cmFuc2Zvcm09InRyYW5zbGF0ZSgtMTEgLTUxKSIgZmlsbC1ydWxlPSJldmVub2RkIiBmaWxsPSJub25lIj4mI3hhOzxwYXRoIGZpbGw9IiMwZjE2ODkiIGQ9Im0xMS42Nzg1NzE0IDE4OWgxOS43ODU4MzU3djI2Ljc4OWgyMy45MDM3di0yNi43ODloMTkuNzg1ODM1OHY3NS4yNWgtMTkuNzg1ODM1OHYtMjguNjk1MzMzaC0yMy45MDM3djI4LjY5NTMzM2gtMTkuNzg1ODM1N3ptODYuMTczODQyOSA3NS4yNXYtNzUuMjVoNDYuODAzMDQyN3YxNi4zNTQzMzNoLTI3LjAxNzIwN3YxMi4yNDA2NjdoMjMuOTAzN3YxNi42NTUzMzNoLTIzLjkwMzd2MTMuODQ2aDI3LjAxNzIwN3YxNi4xNTM2Njd6bTY4LjQ5NzE1NjcgMHYtNzUuMjVoMTkuNzg1ODM2djU1LjM4NGgyNy4xMTc2NDN2MTkuODY2em03Ny41MzYzNzItNzUuMjUgMzAuNzMzMzI4IDI3Ljg5MjY2NyAzMC42MzI4OTMtMjcuODkyNjY3aDguOTM4Nzc5djc1LjI1aC0xOS44ODYyNzJ2LTM4LjYyODMzM2wtMTkuNjg1NCAxNy45NTk2NjYtMTkuNzg1ODM1LTE3Ljg1OTMzM3YzOC41MjhoLTE5Ljg4NjI3MnYtNzUuMjV6Ii8+JiN4YTs8ZyB0cmFuc2Zvcm09Im1hdHJpeCgxIDAgMCAtMSAxMS45NTgxMzYgNDU1KSI+JiN4YTs8ZyBtYXNrPSJ1cmwoI2EpIiBmaWxsPSIjMGYxNjg5Ij4mI3hhOzxwYXRoIHRyYW5zZm9ybT0ibWF0cml4KC44MTkxNTIwNCAuNTczNTc2NDQgLS41NzM1NzY0NCAuODE5MTUyMDQgMTExLjg3MDA5MSAtNTEuNzA2NTU2KSIgZD0ibTIwMy40NjA2NzYgOTUuNjg3NTQyNWM2LjkzNjMxIDAgMTIuNTU5MzAxLTE0LjgwOTIxOTQgMTIuNTU5MzAxLTMzLjA3NzMxNzJzLTUuNjIyOTkxLTMzLjA3NzMxNzItMTIuNTU5MzAxLTMzLjA3NzMxNzJjLTYuOTM2MzExIDAtMTIuNTU5MzAxIDE0LjgwOTIxOTQtMTIuNTU5MzAxIDMzLjA3NzMxNzJzNS42MjI5OSAzMy4wNzczMTcyIDEyLjU1OTMwMSAzMy4wNzczMTcyeiIvPiYjeGE7PHBhdGggdHJhbnNmb3JtPSJtYXRyaXgoLS44MTkxNTIwNCAuNTczNTc2NDQgLjU3MzU3NjQ0IC44MTkxNTIwNCA1OC4wODQ2MTEgNDcuNzA0NzY4KSIgZD0ibTMwLjE0MjMyMjMgOTUuNjg3NTQyNWM2LjkzNjMxMDQgMCAxMi41NTkzMDEtMTQuODA5MjE5NCAxMi41NTkzMDEtMzMuMDc3MzE3MnMtNS42MjI5OTA2LTMzLjA3NzMxNzItMTIuNTU5MzAxLTMzLjA3NzMxNzItMTIuNTU5MzAwOSAxNC44MDkyMTk0LTEyLjU1OTMwMDkgMzMuMDc3MzE3MiA1LjYyMjk5MDUgMzMuMDc3MzE3MiAxMi41NTkzMDA5IDMzLjA3NzMxNzJ6Ii8+JiN4YTs8cGF0aCB0cmFuc2Zvcm09Im1hdHJpeCgtMSAwIDAgMSAyNzIuNjI4NTI0IDUzLjY3MDc2MikiIGQ9Im0xMTYuNzMyODE1IDY2LjI3NTI2NzZjNi45MzYzMTEgMCAxMi41NTkzMDEtMTQuODA5MjE5MyAxMi41NTkzMDEtMzMuMDc3MzE3MiAwLTE4LjI2ODA5NzgtNS42MjI5OS0zMy4wNzczMTcxMy0xMi41NTkzMDEtMzMuMDc3MzE3MTMtNi45MzYzMSAwLTEyLjU1OTMwMSAxNC44MDkyMTkzMy0xMi41NTkzMDEgMzMuMDc3MzE3MTMgMCAxOC4yNjgwOTc5IDUuNjIyOTkxIDMzLjA3NzMxNzIgMTIuNTU5MzAxIDMzLjA3NzMxNzJ6Ii8+JiN4YTs8L2c+JiN4YTs8cGF0aCBzdHJva2Utd2lkdGg9IjIwIiBzdHJva2U9IiMwZjE2ODkiIG1hc2s9InVybCgjYSkiIGQ9Im0yNTEuNDY3MDA2IDE3My4wOTk4NDljLTIwLjIzMDA3Ni0zMy42MDk5NjktNTYuODg5NTY1LTU2LjA2NzkwOC05OC43NTU3NzYtNTYuMDY3OTA4LTQwLjcyMDc5OCAwLTc2LjUxNTg3NjYgMjEuMjQ1OTAxLTk3LjA1ODY5NTkgNTMuMzM0NTg4bTIuMTk4MTEwNyAxMjkuMTY5NTM0YzIwLjg0MDMwMzYgMzAuMjMyNzAxIDU1LjU1NTkwNDIgNTAuMDI2NTkxIDk0Ljg2MDU4NTIgNTAuMDI2NTkxIDM5LjM3NjA5OSAwIDc0LjE0NjQyNC0xOS44NjU4ODcgOTQuOTc0MDQ5LTUwLjE5MTQ5NSIvPiYjeGE7PC9nPiYjeGE7PGcgdHJhbnNmb3JtPSJ0cmFuc2xhdGUoMTEuOTU4MTM2KSI+JiN4YTs8ZyBtYXNrPSJ1cmwoI2IpIiBmaWxsPSIjMGYxNjg5Ij4mI3hhOzxwYXRoIHRyYW5zZm9ybT0ibWF0cml4KC44MTkxNTIwNCAuNTczNTc2NDQgLS41NzM1NzY0NCAuODE5MTUyMDQgMTExLjg3MDA5MSAtNTQuMTY2MDE2KSIgZD0ibTIwMy40NjA2NzYgOTUuNjg3NTQyNWM2LjkzNjMxIDAgMTIuNTU5MzAxLTE0LjgwOTIxOTQgMTIuNTU5MzAxLTMzLjA3NzMxNzJzLTUuNjIyOTkxLTMzLjA3NzMxNzItMTIuNTU5MzAxLTMzLjA3NzMxNzJjLTYuOTM2MzExIDAtMTIuNTU5MzAxIDE0LjgwOTIxOTQtMTIuNTU5MzAxIDMzLjA3NzMxNzJzNS42MjI5OSAzMy4wNzczMTcyIDEyLjU1OTMwMSAzMy4wNzczMTcyeiIvPiYjeGE7PHBhdGggdHJhbnNmb3JtPSJtYXRyaXgoLS44MTkxNTIwNCAuNTczNTc2NDQgLjU3MzU3NjQ0IC44MTkxNTIwNCA1OC4wODQ2MTEgNDUuMjQ1MzA4KSIgZD0ibTMwLjE0MjMyMjMgOTUuNjg3NTQyNWM2LjkzNjMxMDQgMCAxMi41NTkzMDEtMTQuODA5MjE5NCAxMi41NTkzMDEtMzMuMDc3MzE3MnMtNS42MjI5OTA2LTMzLjA3NzMxNzItMTIuNTU5MzAxLTMzLjA3NzMxNzItMTIuNTU5MzAwOSAxNC44MDkyMTk0LTEyLjU1OTMwMDkgMzMuMDc3MzE3MiA1LjYyMjk5MDUgMzMuMDc3MzE3MiAxMi41NTkzMDA5IDMzLjA3NzMxNzJ6Ii8+JiN4YTs8cGF0aCB0cmFuc2Zvcm09Im1hdHJpeCgtMSAwIDAgMSAyNzIuNjI4NTI0IDUxLjIxMTMwMikiIGQ9Im0xMTYuNzMyODE1IDY2LjI3NTI2NzZjNi45MzYzMTEgMCAxMi41NTkzMDEtMTQuODA5MjE5MyAxMi41NTkzMDEtMzMuMDc3MzE3MiAwLTE4LjI2ODA5NzgtNS42MjI5OS0zMy4wNzczMTcxMy0xMi41NTkzMDEtMzMuMDc3MzE3MTMtNi45MzYzMSAwLTEyLjU1OTMwMSAxNC44MDkyMTkzMy0xMi41NTkzMDEgMzMuMDc3MzE3MTMgMCAxOC4yNjgwOTc5IDUuNjIyOTkxIDMzLjA3NzMxNzIgMTIuNTU5MzAxIDMzLjA3NzMxNzJ6Ii8+JiN4YTs8L2c+JiN4YTs8cGF0aCBzdHJva2Utd2lkdGg9IjIwIiBzdHJva2U9IiMwZjE2ODkiIG1hc2s9InVybCgjYikiIGQ9Im0yNTEuNDY3MDA2IDE3MC42NDAzOWMtMjAuMjMwMDc2LTMzLjYwOTk2OS01Ni44ODk1NjUtNTYuMDY3OTA4LTk4Ljc1NTc3Ni01Ni4wNjc5MDgtNDAuNzIwNzk4IDAtNzYuNTE1ODc2NiAyMS4yNDU5LTk3LjA1ODY5NTkgNTMuMzM0NTg3bTIuMTk4MTEwNyAxMjkuMTY5NTM0YzIwLjg0MDMwMzYgMzAuMjMyNzAyIDU1LjU1NTkwNDIgNTAuMDI2NTkxIDk0Ljg2MDU4NTIgNTAuMDI2NTkxIDM5LjM3NjA5OSAwIDc0LjE0NjQyNC0xOS44NjU4ODYgOTQuOTc0MDQ5LTUwLjE5MTQ5NCIvPiYjeGE7PC9nPiYjeGE7PC9nPiYjeGE7PC9zdmc+;" parent="DUqm6WeY4P3lKgYE2ZcJ-6" vertex="1">
          <mxGeometry x="580" y="240.00000000000003" width="60" height="69.27" as="geometry" />
        </mxCell>
        <mxCell id="DUqm6WeY4P3lKgYE2ZcJ-34" value="前端库" style="ellipse;shape=cloud;whiteSpace=wrap;html=1;fontFamily=Helvetica;fontSize=16;fontColor=#14161a;align=center;strokeColor=#000000;fillColor=#ffffff;" parent="DUqm6WeY4P3lKgYE2ZcJ-6" vertex="1">
          <mxGeometry x="1190" y="77.5" width="140" height="80" as="geometry" />
        </mxCell>
        <mxCell id="peeEBgyrgm-aAJhJXFA5-8" style="edgeStyle=orthogonalEdgeStyle;rounded=0;orthogonalLoop=1;jettySize=auto;html=1;fontSize=16;" edge="1" parent="DUqm6WeY4P3lKgYE2ZcJ-6" source="peeEBgyrgm-aAJhJXFA5-3" target="DUqm6WeY4P3lKgYE2ZcJ-13">
          <mxGeometry relative="1" as="geometry" />
        </mxCell>
        <mxCell id="peeEBgyrgm-aAJhJXFA5-3" value="代码门禁" style="swimlane;fontSize=16;" vertex="1" parent="DUqm6WeY4P3lKgYE2ZcJ-6">
          <mxGeometry x="580" y="10" width="200" height="215" as="geometry">
            <mxRectangle x="450" y="10" width="100" height="30" as="alternateBounds" />
          </mxGeometry>
        </mxCell>
        <mxCell id="peeEBgyrgm-aAJhJXFA5-4" value="组件测试" style="shape=image;verticalLabelPosition=bottom;labelBackgroundColor=default;verticalAlign=top;aspect=fixed;imageAspect=0;image=data:image/png,iVBORw0KGgoAAAANSUhEUgAAAHcAAAAwCAYAAAArZOVeAAAAAXNSR0IArs4c6QAADLJJREFUeF7tXHtQVNcZ/5aHCgpSjUYCaOlUkUcivkYwpk2MwUeqfQhqJ8aZKqZxOpmITTtpJxU1TjtJKtj+00wDdqaJ8QHpNJqoYMUko4JV6wNFaeITiO8Hy4LLa7fnd+Vcz5499+5dFpxO3OPs7Lh7zne+8/2+99mLzc0GBTiaO9vodPMVunj3FtU4LtP1Nof2CiEbhYeEUrgtlFKjYimUfTKq/1CK7xtDcRExFBMWEeDOweVmErB1F9zr7c20//ZXVHXnggaqPHRgu8ANs4VoIHOw8R7XdyClRydQ6oBY6hcSFkSqhyXgN7gtrnbae6OWKtjrZmcLtbo6jIHlYDIgw5jVisACaBFwWPb4qASKCuvXw0d8eMn5BW7FzVr69OpJussAxsC7030f3EfC+9N3+g+hxH6DKcRmoyF9Bmjvje1O7f1aWxPdZBbv6HB6WLEI8lhmySMjh1IfphDBEZgELIELQP5ef5C+bL7msZuLhevw0FCaOSSVJg4coYFpZcDaz7Zcp+qmr8ne6fSy6kcYnfSoeIoOWrEVcRrO8QluvfM2FZ6r0K2VUxrJLPT5oY9rCVIgw9HZSifsDVTXekezZtGK01gsHtY3OhDyD/VaU3Arb5+n9xsOeghoUHgkLYrPCBhUWeqNHXfpWFMDtXS0ecRmKA/cfXD4LwFDcFXAZsQkUvZj4ygyJNz/nSyuONdyg+olK4b1Bi3YogCFaUpw4Yp//1WZB7UX4yZR5rcS/d+hGytQI1903vKIxbGsbIoK69sNag/vEi9wUer87sw2jxj7IIHlUDg6WglKFhoSooM8jAGMmBwc1iTgBW7h+T0sK76ur86OHUtTBydZo9bDswDwjXaHnmT1DQ2jgayrZWP/gsO3BDzAleMsYuyi+Em+qfTiDDuriVFP8+5WBIv3Qeu1JnAdXNkdIyv+7ciZvZo8WWORCADbWBOEl0pBcK1JTgf3k2snaQd78fHz4VNoTHS8NSq9PMtFbmrr7NBKpNBgzLUsbR3cFTUfkbOrrYgGRV7is5aJPIiJbgZwMNb6J2kNXDnWLk+caqlJUVfXQPUNlyk6agClpo72b+cenn3q1BmyNzkC5qWxsYlqTtdSfFwsJSTEmXJ5oPKQFi6szFURCkR+nE/QzcyYoORTA1fMkBFr1ybNMTwUGCpY/y5VVh2m+vqvPealpCTR0iULKSf7/vrFua9S+e7P9HmV+3b4FNqkyTOogSkNRsak8VS6dQOtK/wLFbJ9+di6uYgS4h/TeCkr30t2e5P+XXR0FE3PeoZWLH9ZuZdMq/7icQJQq9a8QzU1tTodfC6PrSUfU9GGjR7zMMfXniId7F9Sus1LfvHsPL/MW0ZZzz1DAwdGKTHYVVahnVnkk++fC9nPna2f2cYu2t2vMZfMh1npg4NBAKIgVRwA5JLNxRqDENq8Bbn6tCU/e4FWr/q1ofLI8wv+uIbm5fzQC9w8BlwxE7IvXvh6WbiiouSv/BWtZueShwguLCVnwRIvocprAPIqRg88y8MqDVF+Io3lK96g0o+2G8qOg1zCFB+e1FbruOpef75CX/Bm0mwarOjlAtgVr600JSx+CS3EJnBtoiXi8DXV+wzpiAeIY67x4IFd2lzZ2iwzwibKAFulxcG1CorIk0qpsuctpqqDR/RpUQhnzBAwTjGP0cTCCh9wtSVbivX/q3iGV8OoYx6UezoOcOW+nWTbfrXazbPkfqyGLEiZ6yU32ZowIeu5pwluYHLmRIKrhpsGA+ImnMH3ij/wsAzVwUETQkx9Yoq+P6wTbsoMXJEPrK+sOkRFbD9RiFCosh1bdHelEhQUCXuBZygkzoyzYcigQKgr2Fz+PfYt2vCBtq8IEPbkuQhklDllln428F24bq3ufkFjydJXPfgW14sGAl5LGfBiTpC/6m0q/ttGnT68ka3g3L/cvCP1RFQcvTziKS9w5cNhIWKrPFQMFv21kAlsogdoslZyOrISiPFZBYgIvsyL7MKyWSxaX7BWqSgpyaOYlWxQxjlZsTG3fFeJ19nxgTwXAG4o+pM2V/4OOQNXDk4MSeH0WfMJ4MGiufHg+/gRY/Q9jUJbctqT2hysRVjwAHfW0DT6AXuJQ9Y4nuAoT9dlfVkzczQLmDF9qvbCkIWtSqxE7RQFo7JcK3xkPDlDtyQxHMiKAgXkfPpSEl8JodE5OXCcPuQDDyZn5DAQVTIF4LhXwFnAs6wc8lpb3qlSN69vVeDK1mQmCCPAVZora58vzZYBMXLtIg+yq+JuTpUtG/EuKhzyCFWiJBsDMmE+RAsVafHvkTxNZkDDfUNhjcov+SyaNTN+oCRYC2uVSyLbsupN+k9bVbc/siB8aa4ZwFkzclgN+V9tipxYGSVSnJ6qFJI1V95bVkwuaH/AFd2h2dmMvhNDB6w3e/4Sj7gsr+PlkFhOYo6W1M1frMtPtR9kOo+VoXnLl2nW/0DBlTNubn1yIqWK6d8EcDlISL7KWL3KFV0FFMAtXPem11eQIV5iwqhSkLIdWz3B7U23zA8mxkGeWMmgnzqxzyvu/D+4ZSRTq/KNa3QVSGi0mHW6EI5QBlWyd7HZA1q+Qg88AdaCBho5YqaOBNLvhMoo0+UHgxVOnzVPT6jQKRKHKuFYsnS5rsViViuuk8G1wkfmlJl6kwM15emT+zWS/rhlK4mgyCcEXsY6csgpjLpMSFJVgMt5h0oWRmvxOVw+L0XhortVCqHGQ2tPHgA296XlWs3Lh5yAyVkjwIfW8aEqEVSA4DMj14Xv5LanWSmkajNyfrxKIaH7pjo/72JBuDlz5+jdOMT/cnZOyMaskSNmxbwiAA/oqMFK0ZET61+RB/nMehMD12oRoX2oMNlaEwOWgzosY9IE1iNt0CwPFiH2m43KFblu5gya1ZBGXSWRD7vdrsUiCFLsvcJqy3duNWximIGrUhQkPauZexa9kqrnLLpVOblTKaY8h1cUskEgwy5mpZBo/VCA3JfydE8FWdq2XT3h3nT5CIP2XtL85+Qc5Y/L/W0/gnjxe+uV7seIllmMsdoyVMU9X+1HX+BayVTlfWWXChpivoH5sGCx/Sj2yWWFVBkEL33QfpQvceAxbeyXhu5XarbqvL0YO5GQWKkGQMlf/bZpKo91Zh0fTld0P/gMh6nav8swTsngIqMuYJ5CTCJknkETFibXpv7EXE5T1X1TCol9aNQ5s1IKcVmgvSheo/qjYFyZtSu/dRf20OHGSxqvCaHR9Haat2sWD5m/+i0tdoh9ZHwPNwxB+ir0MVcuyo0SKb6v0ZUfPpczRYAKl4lesSpx6Q64nA+4PyiVXIr42lOUH0ohGIosP7QdIbvcxQsNlVxz/wg7Xf0CTle1vwbu57e+pHfr9pHb5SZXWwflJz1PqTHmF9XiYX2l+yoNN+sjq+b7qnORLcI9dYcXIwv09Tnf01czxYwOrLmRJUmpKaMNATVa7+vMGrgt7OHpV06XUHObkzqd7ZQc+SitSf+xr7MF9L3qQt6MoC9wA2LmG7pY/w1V6ZWjVFJ/hFytHdTZ2q6Bmzaod34gZ3QhHwS3Z7Xs/k9bmfX+4tgmampp1gAeHBJB659aRP3De/4RDrEeE5sLQXB7CVyQLak/TFvOHtQs19XWSRMHJdIbk3/SozvKV4hmd7LixkG37D8MXo+TrDz6D6q+eukewMyCcx+fSj9K7rmnDrp7yxQEtwfAbWbP5yytKCIHc89IrmDBeRmzKWvUWP+pK1aYXcj3yAZBIroElI9wnrxZR69/tpHcrCzqdHZo5dHC9Kdp0aRpAYlO7kx19+I/ICYeosWGD1/vuVBN6/b/U8+e4aIzhyfT67MW0IB+3fv7UWILTfxl40Mk7wd6VNM/m7D77HF6Z28pubXyiFkwe0XYwug3c16g76Wk+8WonEgZ/cjOL6LByaYS8PkHTw5cOE1vlW2hJoejKwbDVbdT+vDv0vwp0+j7Y8ZZEvH0mfPZldUZfa7qQt4SoeAkyxLwCS4oXbHfpj98+iEdO1urJ1n3kq0OenRADP102gwan5RCoxPVf1YBtx3jJj5LTmerxtiIEQm0/4tPLDMZnNg9CVgCl5MuqdpLxbu3U+MduwYsL5e4y+4f1oeSEr5NE9LSyN3poqjISEoeOZKKit4nPOOi02E3HkYPL3XvGMFVKgn4BS4IOO620OYvdtOH5TvJ3mjXY/F9oO/Vx66uOlkDnikCHxnskh/XWcHR+xLwG1yRpe37P6eP91bQv48d78qq7wHp6nLZ3HW72ju1ZWg14ok9fkHd+8d7uHcICFxRdIeqT9DBo8ep6tB/CGBeulBHdRfrtRgdHzuMMtlzN/jtFa7kguPBSOB/SHQj4nL3BJUAAAAASUVORK5CYII=;fontSize=16;" vertex="1" parent="peeEBgyrgm-aAJhJXFA5-3">
          <mxGeometry x="40.5" y="130" width="119" height="48" as="geometry" />
        </mxCell>
        <mxCell id="peeEBgyrgm-aAJhJXFA5-5" value="代码扫描" style="shape=image;html=1;verticalAlign=top;verticalLabelPosition=bottom;labelBackgroundColor=#ffffff;imageAspect=0;image=https://cdn0.iconfinder.com/data/icons/evericons-24px-vol-1/24/file-scan-128.png;fontSize=16;aspect=fixed;" vertex="1" parent="peeEBgyrgm-aAJhJXFA5-3">
          <mxGeometry x="76.85" y="36" width="46.3" height="50" as="geometry" />
        </mxCell>
        <mxCell id="peeEBgyrgm-aAJhJXFA5-18" value="" style="swimlane;startSize=0;strokeWidth=1;" vertex="1" parent="DUqm6WeY4P3lKgYE2ZcJ-6">
          <mxGeometry x="870" y="212.5" width="200" height="120" as="geometry" />
        </mxCell>
        <mxCell id="peeEBgyrgm-aAJhJXFA5-19" value="Kubernetes" style="sketch=0;aspect=fixed;html=1;points=[];align=center;image;fontSize=16;image=img/lib/mscae/Kubernetes.svg;fontColor=#14161a;" vertex="1" parent="peeEBgyrgm-aAJhJXFA5-18">
          <mxGeometry x="120" y="30" width="50" height="48" as="geometry" />
        </mxCell>
        <mxCell id="peeEBgyrgm-aAJhJXFA5-20" value="chart" style="shape=image;html=1;verticalAlign=top;verticalLabelPosition=bottom;labelBackgroundColor=#ffffff;imageAspect=0;aspect=fixed;image=https://cdn1.iconfinder.com/data/icons/hawcons/32/699749-icon-103-document-file-yml-128.png;strokeWidth=1;sketch=0;imageBackground=none;" vertex="1" parent="peeEBgyrgm-aAJhJXFA5-18">
          <mxGeometry x="20" y="24" width="60" height="60" as="geometry" />
        </mxCell>
        <mxCell id="peeEBgyrgm-aAJhJXFA5-57" value="build" style="edgeStyle=orthogonalEdgeStyle;rounded=0;orthogonalLoop=1;jettySize=auto;html=1;fontSize=16;" edge="1" parent="DUqm6WeY4P3lKgYE2ZcJ-6" source="peeEBgyrgm-aAJhJXFA5-22" target="DUqm6WeY4P3lKgYE2ZcJ-26">
          <mxGeometry relative="1" as="geometry" />
        </mxCell>
        <mxCell id="peeEBgyrgm-aAJhJXFA5-22" value="" style="swimlane;startSize=0;fontSize=16;fontColor=#14161a;" vertex="1" parent="DUqm6WeY4P3lKgYE2ZcJ-6">
          <mxGeometry x="1100" y="212.5" width="200" height="120" as="geometry" />
        </mxCell>
        <mxCell id="peeEBgyrgm-aAJhJXFA5-23" value="dist" style="verticalLabelPosition=bottom;html=1;verticalAlign=top;align=center;strokeColor=none;fillColor=#00BEF2;shape=mxgraph.azure.cloud_service_package_file;fontSize=16;fontColor=#14161a;" vertex="1" parent="peeEBgyrgm-aAJhJXFA5-22">
          <mxGeometry x="27.5" y="35" width="42.5" height="50" as="geometry" />
        </mxCell>
        <mxCell id="peeEBgyrgm-aAJhJXFA5-24" value="Dockerfile" style="aspect=fixed;html=1;points=[];align=center;image;fontSize=12;image=img/lib/azure2/general/File.svg;strokeWidth=1;" vertex="1" parent="peeEBgyrgm-aAJhJXFA5-22">
          <mxGeometry x="120" y="35" width="43.83" height="54" as="geometry" />
        </mxCell>
        <mxCell id="peeEBgyrgm-aAJhJXFA5-85" value="测试" style="swimlane;sketch=0;fontSize=16;strokeWidth=1;" vertex="1" parent="DUqm6WeY4P3lKgYE2ZcJ-6">
          <mxGeometry x="110" y="330" width="160" height="170" as="geometry" />
        </mxCell>
        <mxCell id="peeEBgyrgm-aAJhJXFA5-86" value="测试验收" style="rounded=0;whiteSpace=wrap;html=1;sketch=0;fontSize=16;strokeWidth=1;aspect=fixed;" vertex="1" parent="peeEBgyrgm-aAJhJXFA5-85">
          <mxGeometry x="30" y="40" width="100" height="50" as="geometry" />
        </mxCell>
        <mxCell id="peeEBgyrgm-aAJhJXFA5-87" value="E2E测试" style="rounded=0;whiteSpace=wrap;html=1;sketch=0;fontSize=16;strokeWidth=1;aspect=fixed;" vertex="1" parent="peeEBgyrgm-aAJhJXFA5-85">
          <mxGeometry x="30" y="100" width="100" height="50" as="geometry" />
        </mxCell>
        <mxCell id="peeEBgyrgm-aAJhJXFA5-93" style="edgeStyle=orthogonalEdgeStyle;rounded=0;orthogonalLoop=1;jettySize=auto;html=1;fontSize=16;endArrow=classic;endFill=1;" edge="1" parent="DUqm6WeY4P3lKgYE2ZcJ-6" source="peeEBgyrgm-aAJhJXFA5-88" target="peeEBgyrgm-aAJhJXFA5-85">
          <mxGeometry relative="1" as="geometry" />
        </mxCell>
        <mxCell id="peeEBgyrgm-aAJhJXFA5-88" value="内网镜像库" style="ellipse;shape=cloud;whiteSpace=wrap;html=1;fontFamily=Helvetica;fontSize=16;fontColor=#14161a;align=center;strokeColor=#000000;fillColor=#ffffff;" vertex="1" parent="DUqm6WeY4P3lKgYE2ZcJ-6">
          <mxGeometry x="363" y="250" width="140" height="60" as="geometry" />
        </mxCell>
        <mxCell id="peeEBgyrgm-aAJhJXFA5-92" style="edgeStyle=orthogonalEdgeStyle;rounded=0;orthogonalLoop=1;jettySize=auto;html=1;fontSize=16;endArrow=classic;endFill=1;" edge="1" parent="DUqm6WeY4P3lKgYE2ZcJ-6" source="peeEBgyrgm-aAJhJXFA5-89" target="peeEBgyrgm-aAJhJXFA5-85">
          <mxGeometry relative="1" as="geometry" />
        </mxCell>
        <mxCell id="peeEBgyrgm-aAJhJXFA5-89" value="内网helm库" style="ellipse;shape=cloud;whiteSpace=wrap;html=1;fontFamily=Helvetica;fontSize=16;fontColor=#14161a;align=center;strokeColor=#000000;fillColor=#ffffff;" vertex="1" parent="DUqm6WeY4P3lKgYE2ZcJ-6">
          <mxGeometry x="363" y="157.5" width="140" height="60" as="geometry" />
        </mxCell>
        <mxCell id="DUqm6WeY4P3lKgYE2ZcJ-22" style="edgeStyle=orthogonalEdgeStyle;rounded=0;orthogonalLoop=1;jettySize=auto;html=1;fontSize=16;startArrow=none;fontColor=#14161a;" parent="DUqm6WeY4P3lKgYE2ZcJ-6" source="DUqm6WeY4P3lKgYE2ZcJ-26" target="peeEBgyrgm-aAJhJXFA5-88" edge="1">
          <mxGeometry relative="1" as="geometry">
            <mxPoint x="830" y="280" as="targetPoint" />
            <mxPoint x="720" y="235" as="sourcePoint" />
          </mxGeometry>
        </mxCell>
        <mxCell id="DUqm6WeY4P3lKgYE2ZcJ-23" value="上传" style="edgeLabel;html=1;align=center;verticalAlign=middle;resizable=0;points=[];fontSize=16;fontColor=#14161a;" parent="DUqm6WeY4P3lKgYE2ZcJ-22" vertex="1" connectable="0">
          <mxGeometry x="-0.287" relative="1" as="geometry">
            <mxPoint as="offset" />
          </mxGeometry>
        </mxCell>
        <mxCell id="DUqm6WeY4P3lKgYE2ZcJ-35" value="Ops" style="swimlane;startSize=20;horizontal=0;fontSize=16;fontColor=#14161a;" parent="DUqm6WeY4P3lKgYE2ZcJ-2" vertex="1">
          <mxGeometry y="520" width="1350" height="560" as="geometry" />
        </mxCell>
        <mxCell id="peeEBgyrgm-aAJhJXFA5-55" value="部署流水线" style="swimlane;sketch=0;fontSize=16;strokeWidth=1;" vertex="1" parent="DUqm6WeY4P3lKgYE2ZcJ-35">
          <mxGeometry x="329" y="68.75" width="310" height="121.25" as="geometry" />
        </mxCell>
        <mxCell id="DUqm6WeY4P3lKgYE2ZcJ-40" value="获取镜像" style="rounded=0;whiteSpace=wrap;html=1;fontSize=16;fontColor=#14161a;" parent="peeEBgyrgm-aAJhJXFA5-55" vertex="1">
          <mxGeometry x="173" y="55" width="120" height="50" as="geometry" />
        </mxCell>
        <mxCell id="DUqm6WeY4P3lKgYE2ZcJ-79" value="更新 helm 仓库" style="rounded=0;whiteSpace=wrap;html=1;fontSize=16;fontColor=#14161a;" parent="peeEBgyrgm-aAJhJXFA5-55" vertex="1">
          <mxGeometry x="20" y="55" width="120" height="50" as="geometry" />
        </mxCell>
        <mxCell id="DUqm6WeY4P3lKgYE2ZcJ-78" style="edgeStyle=orthogonalEdgeStyle;rounded=0;sketch=0;orthogonalLoop=1;jettySize=auto;html=1;strokeWidth=1;startSize=6;endSize=6;sourcePerimeterSpacing=0;targetPerimeterSpacing=0;" parent="peeEBgyrgm-aAJhJXFA5-55" source="DUqm6WeY4P3lKgYE2ZcJ-79" target="DUqm6WeY4P3lKgYE2ZcJ-40" edge="1">
          <mxGeometry relative="1" as="geometry" />
        </mxCell>
        <mxCell id="DUqm6WeY4P3lKgYE2ZcJ-36" value="执行" style="edgeStyle=orthogonalEdgeStyle;rounded=0;sketch=0;orthogonalLoop=1;jettySize=auto;html=1;strokeWidth=1;startSize=6;endSize=6;sourcePerimeterSpacing=0;targetPerimeterSpacing=0;fontSize=16;" parent="DUqm6WeY4P3lKgYE2ZcJ-35" source="DUqm6WeY4P3lKgYE2ZcJ-37" target="peeEBgyrgm-aAJhJXFA5-55" edge="1">
          <mxGeometry relative="1" as="geometry" />
        </mxCell>
        <mxCell id="DUqm6WeY4P3lKgYE2ZcJ-37" value="运维人员" style="sketch=0;pointerEvents=1;shadow=0;dashed=0;html=1;strokeColor=none;fillColor=#505050;labelPosition=center;verticalLabelPosition=bottom;verticalAlign=top;outlineConnect=0;align=center;shape=mxgraph.office.services.user_services;fontSize=16;fontColor=#14161a;" parent="DUqm6WeY4P3lKgYE2ZcJ-35" vertex="1">
          <mxGeometry x="181" y="104.38" width="50" height="50" as="geometry" />
        </mxCell>
        <mxCell id="DUqm6WeY4P3lKgYE2ZcJ-38" style="edgeStyle=orthogonalEdgeStyle;rounded=0;orthogonalLoop=1;jettySize=auto;html=1;fontSize=16;fontColor=#14161a;" parent="DUqm6WeY4P3lKgYE2ZcJ-35" source="peeEBgyrgm-aAJhJXFA5-55" target="DUqm6WeY4P3lKgYE2ZcJ-71" edge="1">
          <mxGeometry relative="1" as="geometry">
            <mxPoint x="630" y="82" as="targetPoint" />
          </mxGeometry>
        </mxCell>
        <mxCell id="DUqm6WeY4P3lKgYE2ZcJ-39" value="部署" style="edgeLabel;html=1;align=center;verticalAlign=middle;resizable=0;points=[];fontSize=16;fontColor=#14161a;" parent="DUqm6WeY4P3lKgYE2ZcJ-38" vertex="1" connectable="0">
          <mxGeometry x="-0.0986" y="2" relative="1" as="geometry">
            <mxPoint as="offset" />
          </mxGeometry>
        </mxCell>
        <mxCell id="DUqm6WeY4P3lKgYE2ZcJ-41" value="服务集群" style="swimlane;fontSize=16;fontColor=#14161a;expand=1;collapsible=1;" parent="DUqm6WeY4P3lKgYE2ZcJ-35" vertex="1">
          <mxGeometry x="800" width="550" height="560" as="geometry" />
        </mxCell>
        <mxCell id="DUqm6WeY4P3lKgYE2ZcJ-42" value="" style="edgeStyle=orthogonalEdgeStyle;rounded=0;orthogonalLoop=1;jettySize=auto;html=1;endArrow=none;endFill=0;entryX=0.5;entryY=0;entryDx=0;entryDy=0;fontSize=16;fontColor=#14161a;" parent="DUqm6WeY4P3lKgYE2ZcJ-41" source="DUqm6WeY4P3lKgYE2ZcJ-43" target="DUqm6WeY4P3lKgYE2ZcJ-69" edge="1">
          <mxGeometry relative="1" as="geometry">
            <mxPoint x="95" y="259" as="targetPoint" />
          </mxGeometry>
        </mxCell>
        <mxCell id="DUqm6WeY4P3lKgYE2ZcJ-43" value="控制服务" style="sketch=0;aspect=fixed;html=1;points=[];align=center;image;fontSize=16;image=img/lib/mscae/Container_Instances.svg;fontColor=#14161a;" parent="DUqm6WeY4P3lKgYE2ZcJ-41" vertex="1">
          <mxGeometry x="70" y="146" width="50" height="50" as="geometry" />
        </mxCell>
        <mxCell id="DUqm6WeY4P3lKgYE2ZcJ-44" style="edgeStyle=orthogonalEdgeStyle;rounded=0;orthogonalLoop=1;jettySize=auto;html=1;endArrow=none;endFill=0;fontSize=16;fontColor=#14161a;" parent="DUqm6WeY4P3lKgYE2ZcJ-41" source="DUqm6WeY4P3lKgYE2ZcJ-45" target="DUqm6WeY4P3lKgYE2ZcJ-51" edge="1">
          <mxGeometry relative="1" as="geometry" />
        </mxCell>
        <mxCell id="DUqm6WeY4P3lKgYE2ZcJ-45" value="认证服务" style="sketch=0;aspect=fixed;html=1;points=[];align=center;image;fontSize=16;image=img/lib/mscae/Container_Instances.svg;fontColor=#14161a;" parent="DUqm6WeY4P3lKgYE2ZcJ-41" vertex="1">
          <mxGeometry x="190" y="146" width="50" height="50" as="geometry" />
        </mxCell>
        <mxCell id="DUqm6WeY4P3lKgYE2ZcJ-46" style="edgeStyle=orthogonalEdgeStyle;rounded=0;orthogonalLoop=1;jettySize=auto;html=1;endArrow=none;endFill=0;fontSize=16;fontColor=#14161a;" parent="DUqm6WeY4P3lKgYE2ZcJ-41" source="DUqm6WeY4P3lKgYE2ZcJ-47" target="DUqm6WeY4P3lKgYE2ZcJ-54" edge="1">
          <mxGeometry relative="1" as="geometry" />
        </mxCell>
        <mxCell id="DUqm6WeY4P3lKgYE2ZcJ-47" value="接入服务" style="sketch=0;aspect=fixed;html=1;points=[];align=center;image;fontSize=16;image=img/lib/mscae/Container_Instances.svg;fontColor=#14161a;" parent="DUqm6WeY4P3lKgYE2ZcJ-41" vertex="1">
          <mxGeometry x="310" y="146" width="50" height="50" as="geometry" />
        </mxCell>
        <mxCell id="DUqm6WeY4P3lKgYE2ZcJ-48" style="edgeStyle=orthogonalEdgeStyle;rounded=0;orthogonalLoop=1;jettySize=auto;html=1;entryX=0.5;entryY=0;entryDx=0;entryDy=0;endArrow=none;endFill=0;fontSize=16;fontColor=#14161a;" parent="DUqm6WeY4P3lKgYE2ZcJ-41" source="DUqm6WeY4P3lKgYE2ZcJ-49" target="DUqm6WeY4P3lKgYE2ZcJ-57" edge="1">
          <mxGeometry relative="1" as="geometry" />
        </mxCell>
        <mxCell id="DUqm6WeY4P3lKgYE2ZcJ-49" value="其他服务" style="sketch=0;aspect=fixed;html=1;points=[];align=center;image;fontSize=16;image=img/lib/mscae/Container_Instances.svg;fontColor=#14161a;" parent="DUqm6WeY4P3lKgYE2ZcJ-41" vertex="1">
          <mxGeometry x="430" y="146" width="50" height="50" as="geometry" />
        </mxCell>
        <mxCell id="DUqm6WeY4P3lKgYE2ZcJ-50" value="" style="group;fontSize=13;fontColor=#14161a;" parent="DUqm6WeY4P3lKgYE2ZcJ-41" vertex="1" connectable="0">
          <mxGeometry x="157.5" y="253" width="115" height="40" as="geometry" />
        </mxCell>
        <mxCell id="DUqm6WeY4P3lKgYE2ZcJ-51" value="" style="ellipse;whiteSpace=wrap;html=1;aspect=fixed;fontSize=13;fontColor=#14161a;" parent="DUqm6WeY4P3lKgYE2ZcJ-50" vertex="1">
          <mxGeometry x="47.5" width="20" height="20" as="geometry" />
        </mxCell>
        <mxCell id="DUqm6WeY4P3lKgYE2ZcJ-52" value="cert/remoteEntry.js" style="text;html=1;strokeColor=none;fillColor=none;align=center;verticalAlign=middle;whiteSpace=wrap;rounded=0;fontSize=13;fontColor=#14161a;" parent="DUqm6WeY4P3lKgYE2ZcJ-50" vertex="1">
          <mxGeometry y="20" width="115" height="20" as="geometry" />
        </mxCell>
        <mxCell id="DUqm6WeY4P3lKgYE2ZcJ-53" value="" style="group;fontSize=13;fontColor=#14161a;" parent="DUqm6WeY4P3lKgYE2ZcJ-41" vertex="1" connectable="0">
          <mxGeometry x="277.5" y="253" width="115" height="40" as="geometry" />
        </mxCell>
        <mxCell id="DUqm6WeY4P3lKgYE2ZcJ-54" value="" style="ellipse;whiteSpace=wrap;html=1;aspect=fixed;fontSize=13;fontColor=#14161a;" parent="DUqm6WeY4P3lKgYE2ZcJ-53" vertex="1">
          <mxGeometry x="47.5" width="20" height="20" as="geometry" />
        </mxCell>
        <mxCell id="DUqm6WeY4P3lKgYE2ZcJ-55" value="in/remoteEntry.js" style="text;html=1;strokeColor=none;fillColor=none;align=center;verticalAlign=middle;whiteSpace=wrap;rounded=0;fontSize=13;fontColor=#14161a;" parent="DUqm6WeY4P3lKgYE2ZcJ-53" vertex="1">
          <mxGeometry y="20" width="115" height="20" as="geometry" />
        </mxCell>
        <mxCell id="DUqm6WeY4P3lKgYE2ZcJ-56" value="" style="group;fontSize=13;fontColor=#14161a;" parent="DUqm6WeY4P3lKgYE2ZcJ-41" vertex="1" connectable="0">
          <mxGeometry x="397.5" y="253" width="115" height="40" as="geometry" />
        </mxCell>
        <mxCell id="DUqm6WeY4P3lKgYE2ZcJ-57" value="" style="ellipse;whiteSpace=wrap;html=1;aspect=fixed;fontSize=13;fontColor=#14161a;" parent="DUqm6WeY4P3lKgYE2ZcJ-56" vertex="1">
          <mxGeometry x="47.5" width="20" height="20" as="geometry" />
        </mxCell>
        <mxCell id="DUqm6WeY4P3lKgYE2ZcJ-58" value="app/remoteEntry.js" style="text;html=1;strokeColor=none;fillColor=none;align=center;verticalAlign=middle;whiteSpace=wrap;rounded=0;fontSize=13;fontColor=#14161a;" parent="DUqm6WeY4P3lKgYE2ZcJ-56" vertex="1">
          <mxGeometry y="20" width="115" height="20" as="geometry" />
        </mxCell>
        <mxCell id="DUqm6WeY4P3lKgYE2ZcJ-59" style="edgeStyle=orthogonalEdgeStyle;rounded=0;orthogonalLoop=1;jettySize=auto;html=1;endArrow=none;endFill=0;fontSize=16;fontColor=#14161a;" parent="DUqm6WeY4P3lKgYE2ZcJ-41" source="DUqm6WeY4P3lKgYE2ZcJ-60" target="DUqm6WeY4P3lKgYE2ZcJ-62" edge="1">
          <mxGeometry relative="1" as="geometry" />
        </mxCell>
        <mxCell id="DUqm6WeY4P3lKgYE2ZcJ-60" value="基座服务" style="sketch=0;aspect=fixed;html=1;points=[];align=center;image;fontSize=16;image=img/lib/mscae/Container_Instances.svg;fontColor=#14161a;" parent="DUqm6WeY4P3lKgYE2ZcJ-41" vertex="1">
          <mxGeometry x="130" y="399" width="50" height="50" as="geometry" />
        </mxCell>
        <mxCell id="DUqm6WeY4P3lKgYE2ZcJ-61" value="" style="group;fontSize=16;fontColor=#14161a;" parent="DUqm6WeY4P3lKgYE2ZcJ-41" vertex="1" connectable="0">
          <mxGeometry x="220" y="414" width="115" height="40" as="geometry" />
        </mxCell>
        <mxCell id="DUqm6WeY4P3lKgYE2ZcJ-62" value="" style="ellipse;whiteSpace=wrap;html=1;aspect=fixed;fontSize=16;fontColor=#14161a;" parent="DUqm6WeY4P3lKgYE2ZcJ-61" vertex="1">
          <mxGeometry x="47.5" width="20" height="20" as="geometry" />
        </mxCell>
        <mxCell id="DUqm6WeY4P3lKgYE2ZcJ-63" value="index.html" style="text;html=1;strokeColor=none;fillColor=none;align=center;verticalAlign=middle;whiteSpace=wrap;rounded=0;fontSize=16;fontColor=#14161a;" parent="DUqm6WeY4P3lKgYE2ZcJ-61" vertex="1">
          <mxGeometry y="20" width="115" height="20" as="geometry" />
        </mxCell>
        <mxCell id="DUqm6WeY4P3lKgYE2ZcJ-64" style="edgeStyle=orthogonalEdgeStyle;rounded=0;orthogonalLoop=1;jettySize=auto;html=1;entryX=0.5;entryY=1;entryDx=0;entryDy=0;endArrow=classic;endFill=1;fontSize=16;fontColor=#14161a;" parent="DUqm6WeY4P3lKgYE2ZcJ-41" source="DUqm6WeY4P3lKgYE2ZcJ-62" target="DUqm6WeY4P3lKgYE2ZcJ-70" edge="1">
          <mxGeometry relative="1" as="geometry">
            <mxPoint x="95" y="293" as="targetPoint" />
            <Array as="points">
              <mxPoint x="278" y="359" />
              <mxPoint x="95" y="359" />
            </Array>
          </mxGeometry>
        </mxCell>
        <mxCell id="DUqm6WeY4P3lKgYE2ZcJ-65" style="edgeStyle=orthogonalEdgeStyle;rounded=0;orthogonalLoop=1;jettySize=auto;html=1;entryX=0.5;entryY=1;entryDx=0;entryDy=0;endArrow=classic;endFill=1;fontSize=16;fontColor=#14161a;" parent="DUqm6WeY4P3lKgYE2ZcJ-41" source="DUqm6WeY4P3lKgYE2ZcJ-62" target="DUqm6WeY4P3lKgYE2ZcJ-52" edge="1">
          <mxGeometry relative="1" as="geometry">
            <Array as="points">
              <mxPoint x="278" y="360" />
              <mxPoint x="215" y="360" />
            </Array>
          </mxGeometry>
        </mxCell>
        <mxCell id="DUqm6WeY4P3lKgYE2ZcJ-66" style="edgeStyle=orthogonalEdgeStyle;rounded=0;orthogonalLoop=1;jettySize=auto;html=1;endArrow=classic;endFill=1;fontSize=16;fontColor=#14161a;" parent="DUqm6WeY4P3lKgYE2ZcJ-41" source="DUqm6WeY4P3lKgYE2ZcJ-62" target="DUqm6WeY4P3lKgYE2ZcJ-55" edge="1">
          <mxGeometry relative="1" as="geometry">
            <Array as="points">
              <mxPoint x="278" y="360" />
              <mxPoint x="335" y="360" />
            </Array>
          </mxGeometry>
        </mxCell>
        <mxCell id="DUqm6WeY4P3lKgYE2ZcJ-67" style="edgeStyle=orthogonalEdgeStyle;rounded=0;orthogonalLoop=1;jettySize=auto;html=1;entryX=0.5;entryY=1;entryDx=0;entryDy=0;endArrow=classic;endFill=1;fontSize=16;fontColor=#14161a;" parent="DUqm6WeY4P3lKgYE2ZcJ-41" source="DUqm6WeY4P3lKgYE2ZcJ-62" target="DUqm6WeY4P3lKgYE2ZcJ-58" edge="1">
          <mxGeometry relative="1" as="geometry">
            <Array as="points">
              <mxPoint x="278" y="359" />
              <mxPoint x="455" y="359" />
            </Array>
          </mxGeometry>
        </mxCell>
        <mxCell id="DUqm6WeY4P3lKgYE2ZcJ-68" value="" style="group;fontSize=13;fontColor=#14161a;" parent="DUqm6WeY4P3lKgYE2ZcJ-41" vertex="1" connectable="0">
          <mxGeometry x="37.5" y="253" width="115" height="40" as="geometry" />
        </mxCell>
        <mxCell id="DUqm6WeY4P3lKgYE2ZcJ-69" value="" style="ellipse;whiteSpace=wrap;html=1;aspect=fixed;fontSize=13;fontColor=#14161a;" parent="DUqm6WeY4P3lKgYE2ZcJ-68" vertex="1">
          <mxGeometry x="47.5" width="20" height="20" as="geometry" />
        </mxCell>
        <mxCell id="DUqm6WeY4P3lKgYE2ZcJ-70" value="ctl/remoteEntry.js" style="text;html=1;strokeColor=none;fillColor=none;align=center;verticalAlign=middle;whiteSpace=wrap;rounded=0;fontSize=13;fontColor=#14161a;" parent="DUqm6WeY4P3lKgYE2ZcJ-68" vertex="1">
          <mxGeometry y="20" width="115" height="20" as="geometry" />
        </mxCell>
        <mxCell id="DUqm6WeY4P3lKgYE2ZcJ-71" value="" style="fontStyle=0;labelPosition=right;verticalLabelPosition=middle;align=left;verticalAlign=middle;spacingLeft=2;fontSize=16;fontColor=#14161a;" parent="DUqm6WeY4P3lKgYE2ZcJ-41" vertex="1">
          <mxGeometry x="-16" y="80" width="30" height="30" as="geometry" />
        </mxCell>
        <mxCell id="DUqm6WeY4P3lKgYE2ZcJ-72" style="edgeStyle=orthogonalEdgeStyle;rounded=0;orthogonalLoop=1;jettySize=auto;html=1;endArrow=classic;endFill=1;strokeColor=#313937;fontSize=16;fontColor=#14161a;" parent="DUqm6WeY4P3lKgYE2ZcJ-41" source="DUqm6WeY4P3lKgYE2ZcJ-71" target="DUqm6WeY4P3lKgYE2ZcJ-49" edge="1">
          <mxGeometry relative="1" as="geometry" />
        </mxCell>
        <mxCell id="DUqm6WeY4P3lKgYE2ZcJ-74" style="edgeStyle=orthogonalEdgeStyle;rounded=0;orthogonalLoop=1;jettySize=auto;html=1;endArrow=classic;endFill=1;strokeColor=#313937;fontSize=16;fontColor=#14161a;" parent="DUqm6WeY4P3lKgYE2ZcJ-41" source="DUqm6WeY4P3lKgYE2ZcJ-71" target="DUqm6WeY4P3lKgYE2ZcJ-45" edge="1">
          <mxGeometry relative="1" as="geometry" />
        </mxCell>
        <mxCell id="DUqm6WeY4P3lKgYE2ZcJ-75" style="edgeStyle=orthogonalEdgeStyle;rounded=0;orthogonalLoop=1;jettySize=auto;html=1;endArrow=classic;endFill=1;strokeColor=#313937;fontSize=16;fontColor=#14161a;" parent="DUqm6WeY4P3lKgYE2ZcJ-41" source="DUqm6WeY4P3lKgYE2ZcJ-71" target="DUqm6WeY4P3lKgYE2ZcJ-47" edge="1">
          <mxGeometry relative="1" as="geometry" />
        </mxCell>
        <mxCell id="DUqm6WeY4P3lKgYE2ZcJ-76" style="edgeStyle=orthogonalEdgeStyle;rounded=0;orthogonalLoop=1;jettySize=auto;html=1;endArrow=classic;endFill=1;strokeColor=#313937;fontSize=16;fontColor=#14161a;" parent="DUqm6WeY4P3lKgYE2ZcJ-41" source="DUqm6WeY4P3lKgYE2ZcJ-71" target="DUqm6WeY4P3lKgYE2ZcJ-60" edge="1">
          <mxGeometry relative="1" as="geometry" />
        </mxCell>
        <mxCell id="DUqm6WeY4P3lKgYE2ZcJ-77" style="rounded=0;orthogonalLoop=1;jettySize=auto;html=1;endArrow=classic;endFill=1;edgeStyle=orthogonalEdgeStyle;strokeColor=#313937;fontSize=16;fontColor=#14161a;exitX=1;exitY=0.5;exitDx=0;exitDy=0;" parent="DUqm6WeY4P3lKgYE2ZcJ-41" source="DUqm6WeY4P3lKgYE2ZcJ-71" edge="1" target="DUqm6WeY4P3lKgYE2ZcJ-43">
          <mxGeometry relative="1" as="geometry">
            <mxPoint x="14" y="81" as="sourcePoint" />
            <mxPoint x="85" y="146" as="targetPoint" />
          </mxGeometry>
        </mxCell>
        <mxCell id="peeEBgyrgm-aAJhJXFA5-58" value="Plan" style="swimlane;horizontal=0;sketch=0;fontSize=16;strokeWidth=1;" vertex="1" parent="DUqm6WeY4P3lKgYE2ZcJ-35">
          <mxGeometry x="20" y="210" width="780" height="350" as="geometry" />
        </mxCell>
        <mxCell id="peeEBgyrgm-aAJhJXFA5-2" value="" style="shape=image;verticalLabelPosition=bottom;labelBackgroundColor=default;verticalAlign=top;aspect=fixed;imageAspect=0;image=data:image/webp,UklGRjwJAABXRUJQVlA4TC8JAAAvqQAGEGZQ0LYNk/DHvT8AETEBAIbMGzNuzMJtDFn4mIr8/24k52oC064HdWydq/WetHkX/mtoH6HZ0qYuOWezduIbuaDh3GDEtpb1EcSMukrOVE5czjaT49BhpnLiG5nDRv6cbdYDmi8zfHLiIsPb6WcqtlSkeR9BZZa92Q/2EZoQZhspDaGI9zxcBm0bSaK29/UMM1BdUNteN393x2AwGOuFgsFgMZhZbZ0Vi8VibcXdNywWg8FisBiM/QwkSY0yGO9jCQbxC1IrgJLjpj3D0aKFCwUFBb/tHIILDQUXCuUJaX6utWBa8v/fdwOTPOFcRSzeZtJAWsh7wosXpoStIcd0ErZFBJ5FuIDcFdzBxuogPXlaSAVBg8LdgDtQA7kLcFrbtpy0QBmRJ8Bb60pKQEYikZGRX0bOg0RSQmQkEolEfvmYkU4lSbKUX5oIXi3H0fIkEnkSiUQikbgbuXIl7y3+DAa2f3Kc7X0fGBwMBnu3uNi7xWAxuFgMBrdWXKsWg4uLqaU2ODj2KmzbtpGdJum+gzZoa1jSsKJh5znLLvMntCGaWSezmFmZWdwsIhKePYGoAqKqQ4gK8S13dx2GZDhG7DDEBohZYJY0626WN2tdMutvlr4kuAGuGXgswSNeBo8BXN3hLsMARsdAgNFugM0ss2QW2mZWUNQnG1wBPBbgkcEDCzxW4LrbCgbAICHjJJAYkDBzIQmHCaeHiLIwZAyYM0QxHA5d5RmcwuHYXW4mSgoTV0lh4sY9D22HwrK3/xoDd+1erI6914Qq8OjhqrApIaNk9IyJMTP+rUlCqwbCoDX4G8xRdSR0cGbUSoOoYBgDxlBpeiRLGFUUMHyT+mRw8mTQMqAOe0Ytxt1Wx2AOPc7gjNoWwtAMSrQQF1HAGP12JsAc6PaKKNjXGq06YRY1a7KukxaWs4oa9gy4KvAYq3b5tcZqq+SiNk1ydxMM+IARAAB1q92qDdADkO9jZDzTAWPlJEkDVwOMpTvKAaiGoQJnnk+u6hg2Tvh+7c04IXk6OhVJeB7QESSFvY7kNJVF22GfWY1ZcR0BxdnrC6t+Ch7193a09FobjX4svdfgvQb/kCyKaa77jZkGgFJzoFaQMwmttVLANm4aPSFK8jyNfBJLaPXXX38pbRuqTBjbnDqlNfJWaLdWzgsB6hKCK7m/ardKelrzmrZNBMwSS0KbB2lx9qZKagZRjcxLrxUiWSQt1Odlhg1X90HNeRGQHtQStAYkoBTSkKjNsNAKMIgeoLVq0g2k5GbyopRyZiDJpt0R5Xoa0h8TLeew5QJKA1p7ngQUylNEqy0JDUDCW9Je0OU4ui5j3ZSixnCa5/CPJLz8Wjn2XGsnySyDkLDK9sLk3Q04kkOjw2jiqoZSCmUVX9OBQr5MSQGl0DkTG9RpDmVD3eU4gkIU2zbllqsFlLbV+bY61BMaRlDIB7EfQCmlZfSuQTXIwXX6qIRqvtN+fMZggdI407ADo6iG5ty8ky44C3d3txFumSbt/j6vQAz9SrKQsHIsK08NEYkOojMlyrgI5HFGNN0GhSKb1lCIpkQUvpuDg4iqJgY9Odmk9jSvbujnUKholAPymoSom0Ip7FvgYqhhsE4NBwoolHFC9Ps0gMKsYTmx95pvnK3L7F5xBlEqcbKCWdJC8jJhZWXlvpwcxO3A07iGG34pNFLuQX6TIPT50HCaKpH3CihUmRM+NOrdfG9XTbaFsdToLAjvCfJTRETdGXDRQHc7Tc4Io6qGlg27GnOkqG9L4qmZ2MwOwwnc04QEUeLzJMlTFtKdc52Vk5WTW+tOAtsAucx9SyooFGObZQl0ulWTAZ9w7fjwZI60e0fCrIL2BkKmO5UDdduHQhRycS6Bss0HAlrG0xwoJ0RCQBQadjPmb0hLQNenS+g5puUuxTrZiyXby66iahbNk3iZRKej3vEizo6u5lW6U3Y2LSdH65QjR7jcy5E5MYDCGTExlWtCN0DeSgbQTupqIJ/apBy7b/RcGHE9SESiAw17m5hertBXOUCBNOCRIxp5wVtm5qxVKh9sb3exkqdHd5rVfq+ZWjd/taas9WzMwUX8iAS2LVRNBonj7EHf0wKT0o1p6T47tf0e5mLuPW5B8hkPIY10kC7EvHPWdnWXHCY016z2Nm4WrWv/cCNzZaG3ZruzMw6RumYNRlHB7XacuW4scLsTvs9LQDbsoo0XFMnX2kCqfcojdqlEDigbvhvtZ1cpDztjrPPWibWdLQiXvUcU+k6XxVIjj8dEk45zZjIcIAqvybn3lGMNd2cFNMrPQqJswl3WsFQbP2uhbSAKQ+1RxIi24B46D1is5Q6LWxQP+nnKyoSVUf3/P6c1YM6LXjF2IqmwpDCretekOZRIewaFsui17GYQjnDZXlTHh9WHXmNoVHoaeer3qhmUwpmGb6+Nf8pyOMh41Df3f3FaV1SE7LAcBOG5Yb835mTd+IfDZSIo3nOC2tugFADPg3Ig8yUUIAGlsY//gi4pcKaQ+9lazSgxaCREjQpBlwobf8RzCYp7Vtws1/9lA96lRZ7lVQ6cxwLrhj/WdjfRZBvAFxKACIWV5KoJBS/gvB9tgyCEqzd4DIg85gqFZ3JoZc+BYEpU2Pjytd4OX/UWxRYEwohQ0tY9fbcuFNUrqjBYuSkr52kz7GzYm8C6mht9A6CeEv/mQxoYMcvxeaRdlPAAyG0zeE8YMOJseI1QoRmMDxKRoA4eX8MJzzkzZg5vA4KQH+QeypEtIDawEh481JXtRmHjGsVIJ7XhW10jQOgQdmnerK7/y92/2Hd52KySyBpi3X1xpXnKysqidc46zrtX7VsWCkE/fTbkc+yRfUItmIye3RellYHujvbtOyKW6NnUH0TpGYZyqp4n1+yL0ruWXxNqzfRMV0iqg8GEOOtW6Q+8e6/FVRoNrplwKrT9N1B8oEh8lf+C8IsQDNHpm/v9/hX9/p6v54nIusw6u7i4srK4uNc6LbrnUEpn4djB58T5zyATlTiKSdz/SEInIauZq3433ZnjvwaKXRTvKPoDjyL/RNGhKMUvzGJvmOXNiv09ZlmzzDyRPd2617p4uXXBuukf64A2FYaiQDFF0aCoUVTPjNS8WXzrb2ap0yTYHy9aZ6yrrJPv05aWEQA=;imageBorder=none;strokeWidth=17;imageBackground=none;sketch=0;labelPadding=0;container=0;" vertex="1" parent="peeEBgyrgm-aAJhJXFA5-58">
          <mxGeometry x="500" y="252.5" width="170" height="25" as="geometry" />
        </mxCell>
        <mxCell id="peeEBgyrgm-aAJhJXFA5-70" value="告警" style="edgeStyle=orthogonalEdgeStyle;rounded=0;orthogonalLoop=1;jettySize=auto;html=1;fontSize=16;endArrow=classic;endFill=1;" edge="1" parent="peeEBgyrgm-aAJhJXFA5-58" source="peeEBgyrgm-aAJhJXFA5-1" target="peeEBgyrgm-aAJhJXFA5-69">
          <mxGeometry relative="1" as="geometry" />
        </mxCell>
        <mxCell id="peeEBgyrgm-aAJhJXFA5-1" value="" style="shape=image;verticalLabelPosition=bottom;labelBackgroundColor=default;verticalAlign=top;aspect=fixed;imageAspect=0;image=data:image/svg+xml,PHN2ZyB4bWxucz0iaHR0cDovL3d3dy53My5vcmcvMjAwMC9zdmciIGhlaWdodD0iMTE5IiB3aWR0aD0iNDAwIiB2aWV3Qm94PSIwIDAgMjIyIDY2IiBjbGFzcz0iY3NzLWxmYm82aiBlMTBudXNoeDQiPjxwYXRoIGZpbGw9IiMzNjJkNTkiIHRyYW5zZm9ybT0idHJhbnNsYXRlKDExLCAxMSkiIGQ9Ik0yOSwyLjI2YTQuNjcsNC42NywwLDAsMC04LDBMMTQuNDIsMTMuNTNBMzIuMjEsMzIuMjEsMCwwLDEsMzIuMTcsNDAuMTlIMjcuNTVBMjcuNjgsMjcuNjgsMCwwLDAsMTIuMDksMTcuNDdMNiwyOGExNS45MiwxNS45MiwwLDAsMSw5LjIzLDEyLjE3SDQuNjJBLjc2Ljc2LDAsMCwxLDQsMzkuMDZsMi45NC01YTEwLjc0LDEwLjc0LDAsMCwwLTMuMzYtMS45bC0yLjkxLDVhNC41NCw0LjU0LDAsMCwwLDEuNjksNi4yNEE0LjY2LDQuNjYsMCwwLDAsNC42Miw0NEgxOS4xNWExOS40LDE5LjQsMCwwLDAtOC0xNy4zMWwyLjMxLTRBMjMuODcsMjMuODcsMCwwLDEsMjMuNzYsNDRIMzYuMDdhMzUuODgsMzUuODgsMCwwLDAtMTYuNDEtMzEuOGw0LjY3LThhLjc3Ljc3LDAsMCwxLDEuMDUtLjI3Yy41My4yOSwyMC4yOSwzNC43NywyMC42NiwzNS4xN2EuNzYuNzYsMCwwLDEtLjY4LDEuMTNINDAuNnEuMDksMS45MSwwLDMuODFoNC43OEE0LjU5LDQuNTksMCwwLDAsNTAsMzkuNDNhNC40OSw0LjQ5LDAsMCwwLS42Mi0yLjI4WiBNMTI0LjMyLDI4LjI4LDEwOS41Niw5LjIyaC0zLjY4VjM0Ljc3aDMuNzNWMTUuMTlsMTUuMTgsMTkuNThoMy4yNlY5LjIyaC0zLjczWk04Ny4xNSwyMy41NGgxMy4yM1YyMC4yMkg4Ny4xNFYxMi41M2gxNC45M1Y5LjIxSDgzLjM0VjM0Ljc3aDE4LjkyVjMxLjQ1SDg3LjE0Wk03MS41OSwyMC4zaDBDNjYuNDQsMTkuMDYsNjUsMTguMDgsNjUsMTUuN2MwLTIuMTQsMS44OS0zLjU5LDQuNzEtMy41OWExMi4wNiwxMi4wNiwwLDAsMSw3LjA3LDIuNTVsMi0yLjgzYTE0LjEsMTQuMSwwLDAsMC05LTNjLTUuMDYsMC04LjU5LDMtOC41OSw3LjI3LDAsNC42LDMsNi4xOSw4LjQ2LDcuNTJDNzQuNTEsMjQuNzQsNzYsMjUuNzgsNzYsMjguMTFzLTIsMy43Ny01LjA5LDMuNzdhMTIuMzQsMTIuMzQsMCwwLDEtOC4zLTMuMjZsLTIuMjUsMi42OWExNS45NCwxNS45NCwwLDAsMCwxMC40MiwzLjg1YzUuNDgsMCw5LTIuOTUsOS03LjUxQzc5Ljc1LDIzLjc5LDc3LjQ3LDIxLjcyLDcxLjU5LDIwLjNaTTE5NS43LDkuMjJsLTcuNjksMTItNy42NC0xMmgtNC40NkwxODYsMjQuNjdWMzQuNzhoMy44NFYyNC41NUwyMDAsOS4yMlptLTY0LjYzLDMuNDZoOC4zN3YyMi4xaDMuODRWMTIuNjhoOC4zN1Y5LjIySDEzMS4wOFpNMTY5LjQxLDI0LjhjMy44Ni0xLjA3LDYtMy43Nyw2LTcuNjMsMC00LjkxLTMuNTktOC05LjM4LThIMTU0LjY3VjM0Ljc2aDMuOFYyNS41OGg2LjQ1bDYuNDgsOS4yaDQuNDRsLTctOS44MlptLTEwLjk1LTIuNVYxMi42aDcuMTdjMy43NCwwLDUuODgsMS43Nyw1Ljg4LDQuODRzLTIuMjksNC44Ni01Ljg0LDQuODZaIi8+PC9zdmc+;" vertex="1" parent="peeEBgyrgm-aAJhJXFA5-58">
          <mxGeometry x="607.19" y="102" width="168.07" height="50" as="geometry" />
        </mxCell>
        <mxCell id="peeEBgyrgm-aAJhJXFA5-64" style="edgeStyle=orthogonalEdgeStyle;rounded=0;orthogonalLoop=1;jettySize=auto;html=1;fontSize=16;" edge="1" parent="peeEBgyrgm-aAJhJXFA5-58" source="peeEBgyrgm-aAJhJXFA5-59" target="peeEBgyrgm-aAJhJXFA5-63">
          <mxGeometry relative="1" as="geometry" />
        </mxCell>
        <mxCell id="peeEBgyrgm-aAJhJXFA5-59" value="PO" style="shadow=0;dashed=0;html=1;strokeColor=none;fillColor=#4495D1;labelPosition=center;verticalLabelPosition=bottom;verticalAlign=top;align=center;outlineConnect=0;shape=mxgraph.veeam.company_user;sketch=0;fontSize=16;" vertex="1" parent="peeEBgyrgm-aAJhJXFA5-58">
          <mxGeometry x="260" y="240.6" width="44.4" height="48.8" as="geometry" />
        </mxCell>
        <mxCell id="peeEBgyrgm-aAJhJXFA5-62" style="edgeStyle=orthogonalEdgeStyle;rounded=0;orthogonalLoop=1;jettySize=auto;html=1;fontSize=16;" edge="1" parent="peeEBgyrgm-aAJhJXFA5-58" source="peeEBgyrgm-aAJhJXFA5-61" target="peeEBgyrgm-aAJhJXFA5-59">
          <mxGeometry relative="1" as="geometry" />
        </mxCell>
        <mxCell id="peeEBgyrgm-aAJhJXFA5-61" value="分析报告" style="shape=image;html=1;verticalAlign=top;verticalLabelPosition=bottom;labelBackgroundColor=#ffffff;imageAspect=0;image=https://cdn0.iconfinder.com/data/icons/thin-line-icons-for-seo-and-development-1/64/Programming_Development_analysis-128.png;fontFamily=Helvetica;fontSize=16;fontColor=default;align=center;strokeColor=default;strokeWidth=1;fillColor=default;sketch=0;" vertex="1" parent="peeEBgyrgm-aAJhJXFA5-58">
          <mxGeometry x="376.05" y="228" width="95.97" height="74" as="geometry" />
        </mxCell>
        <mxCell id="peeEBgyrgm-aAJhJXFA5-60" style="edgeStyle=orthogonalEdgeStyle;rounded=0;orthogonalLoop=1;jettySize=auto;html=1;fontSize=16;" edge="1" parent="peeEBgyrgm-aAJhJXFA5-58" source="peeEBgyrgm-aAJhJXFA5-2" target="peeEBgyrgm-aAJhJXFA5-61">
          <mxGeometry relative="1" as="geometry">
            <mxPoint x="270" y="289.5" as="targetPoint" />
          </mxGeometry>
        </mxCell>
        <mxCell id="peeEBgyrgm-aAJhJXFA5-63" value="需求" style="rounded=0;whiteSpace=wrap;html=1;sketch=0;fontSize=16;strokeWidth=1;" vertex="1" parent="peeEBgyrgm-aAJhJXFA5-58">
          <mxGeometry x="80" y="239.4" width="120" height="50" as="geometry" />
        </mxCell>
        <mxCell id="peeEBgyrgm-aAJhJXFA5-71" value="确认问题" style="edgeStyle=orthogonalEdgeStyle;rounded=0;orthogonalLoop=1;jettySize=auto;html=1;fontSize=16;endArrow=classic;endFill=1;" edge="1" parent="peeEBgyrgm-aAJhJXFA5-58" source="peeEBgyrgm-aAJhJXFA5-69" target="peeEBgyrgm-aAJhJXFA5-72">
          <mxGeometry relative="1" as="geometry">
            <mxPoint x="254.74" y="132" as="targetPoint" />
          </mxGeometry>
        </mxCell>
        <mxCell id="peeEBgyrgm-aAJhJXFA5-69" value="" style="shape=umlActor;verticalLabelPosition=bottom;verticalAlign=top;html=1;outlineConnect=0;sketch=0;fontSize=16;strokeWidth=1;" vertex="1" parent="peeEBgyrgm-aAJhJXFA5-58">
          <mxGeometry x="479.99999999999994" y="97" width="30" height="60" as="geometry" />
        </mxCell>
        <mxCell id="peeEBgyrgm-aAJhJXFA5-72" value="某页面表格操作报错......&lt;br&gt;某页面加载阻塞时间过长...." style="html=1;shadow=0;dashed=0;shape=mxgraph.atlassian.issue;issueType=story;issuePriority=blocker;issueStatus=inProgress;verticalAlign=top;align=left;whiteSpace=wrap;overflow=hidden;spacingTop=25;strokeColor=#A8ADB0;fillColor=#EEEEEE;fontSize=12;backgroundOutline=1;sketch=0;" vertex="1" parent="peeEBgyrgm-aAJhJXFA5-58">
          <mxGeometry x="170" y="93" width="200" height="68" as="geometry" />
        </mxCell>
        <mxCell id="peeEBgyrgm-aAJhJXFA5-73" value="BUG" style="strokeColor=none;fillColor=none;part=1;resizable=0;align=left;autosize=1;points=[];deletable=0;connectable=0;sketch=0;fontSize=16;" vertex="1" parent="peeEBgyrgm-aAJhJXFA5-72">
          <mxGeometry width="60" height="30" relative="1" as="geometry">
            <mxPoint x="20" y="-5" as="offset" />
          </mxGeometry>
        </mxCell>
        <mxCell id="peeEBgyrgm-aAJhJXFA5-74" value="计划" style="rounded=0;whiteSpace=wrap;html=1;sketch=0;fontSize=16;strokeWidth=1;" vertex="1" parent="DUqm6WeY4P3lKgYE2ZcJ-35">
          <mxGeometry x="100" y="190" width="120" height="50" as="geometry" />
        </mxCell>
        <mxCell id="peeEBgyrgm-aAJhJXFA5-75" style="edgeStyle=orthogonalEdgeStyle;rounded=0;orthogonalLoop=1;jettySize=auto;html=1;fontSize=16;endArrow=classic;endFill=1;" edge="1" parent="DUqm6WeY4P3lKgYE2ZcJ-35" source="peeEBgyrgm-aAJhJXFA5-72" target="peeEBgyrgm-aAJhJXFA5-74">
          <mxGeometry relative="1" as="geometry" />
        </mxCell>
        <mxCell id="peeEBgyrgm-aAJhJXFA5-76" style="edgeStyle=orthogonalEdgeStyle;rounded=0;orthogonalLoop=1;jettySize=auto;html=1;fontSize=16;endArrow=classic;endFill=1;" edge="1" parent="DUqm6WeY4P3lKgYE2ZcJ-35" source="peeEBgyrgm-aAJhJXFA5-63" target="peeEBgyrgm-aAJhJXFA5-74">
          <mxGeometry relative="1" as="geometry" />
        </mxCell>
        <mxCell id="DUqm6WeY4P3lKgYE2ZcJ-33" value="外网helm库" style="ellipse;shape=cloud;whiteSpace=wrap;html=1;fontFamily=Helvetica;fontSize=16;fontColor=#14161a;align=center;strokeColor=#000000;fillColor=#ffffff;" parent="DUqm6WeY4P3lKgYE2ZcJ-35" vertex="1">
          <mxGeometry x="339" y="-5" width="140" height="60" as="geometry" />
        </mxCell>
        <mxCell id="DUqm6WeY4P3lKgYE2ZcJ-5" style="edgeStyle=orthogonalEdgeStyle;rounded=0;sketch=0;orthogonalLoop=1;jettySize=auto;html=1;strokeWidth=1;startSize=6;endSize=6;sourcePerimeterSpacing=0;targetPerimeterSpacing=0;dashed=1;" parent="DUqm6WeY4P3lKgYE2ZcJ-35" source="DUqm6WeY4P3lKgYE2ZcJ-33" target="DUqm6WeY4P3lKgYE2ZcJ-79" edge="1">
          <mxGeometry relative="1" as="geometry" />
        </mxCell>
        <mxCell id="DUqm6WeY4P3lKgYE2ZcJ-21" value="外网镜像库" style="ellipse;shape=cloud;whiteSpace=wrap;html=1;fontFamily=Helvetica;fontSize=16;fontColor=#14161a;align=center;strokeColor=#000000;fillColor=#ffffff;" parent="DUqm6WeY4P3lKgYE2ZcJ-35" vertex="1">
          <mxGeometry x="492" y="-5" width="140" height="60" as="geometry" />
        </mxCell>
        <mxCell id="DUqm6WeY4P3lKgYE2ZcJ-3" style="edgeStyle=orthogonalEdgeStyle;rounded=0;orthogonalLoop=1;jettySize=auto;html=1;fontSize=16;fontColor=#14161a;dashed=1;" parent="DUqm6WeY4P3lKgYE2ZcJ-35" source="DUqm6WeY4P3lKgYE2ZcJ-21" target="DUqm6WeY4P3lKgYE2ZcJ-40" edge="1">
          <mxGeometry relative="1" as="geometry" />
        </mxCell>
        <mxCell id="peeEBgyrgm-aAJhJXFA5-49" value="日志上报" style="edgeStyle=orthogonalEdgeStyle;rounded=0;orthogonalLoop=1;jettySize=auto;html=1;fontSize=16;" edge="1" parent="DUqm6WeY4P3lKgYE2ZcJ-2" source="DUqm6WeY4P3lKgYE2ZcJ-84" target="peeEBgyrgm-aAJhJXFA5-1">
          <mxGeometry x="0.56" y="1" relative="1" as="geometry">
            <mxPoint as="offset" />
          </mxGeometry>
        </mxCell>
        <mxCell id="peeEBgyrgm-aAJhJXFA5-52" value="行为上报" style="edgeStyle=orthogonalEdgeStyle;rounded=0;orthogonalLoop=1;jettySize=auto;html=1;fontSize=16;entryX=1;entryY=0.5;entryDx=0;entryDy=0;" edge="1" parent="DUqm6WeY4P3lKgYE2ZcJ-2" source="DUqm6WeY4P3lKgYE2ZcJ-84" target="peeEBgyrgm-aAJhJXFA5-2">
          <mxGeometry relative="1" as="geometry" />
        </mxCell>
        <mxCell id="DUqm6WeY4P3lKgYE2ZcJ-80" value="User" style="swimlane;startSize=20;horizontal=0;fontSize=16;fontColor=#14161a;" parent="DUqm6WeY4P3lKgYE2ZcJ-2" vertex="1">
          <mxGeometry y="1080" width="1350" height="190" as="geometry" />
        </mxCell>
        <mxCell id="DUqm6WeY4P3lKgYE2ZcJ-81" style="edgeStyle=orthogonalEdgeStyle;rounded=0;orthogonalLoop=1;jettySize=auto;html=1;fontSize=16;fontColor=#14161a;" parent="DUqm6WeY4P3lKgYE2ZcJ-80" source="DUqm6WeY4P3lKgYE2ZcJ-83" target="DUqm6WeY4P3lKgYE2ZcJ-84" edge="1">
          <mxGeometry relative="1" as="geometry" />
        </mxCell>
        <mxCell id="DUqm6WeY4P3lKgYE2ZcJ-82" value="访问" style="edgeLabel;html=1;align=center;verticalAlign=middle;resizable=0;points=[];fontSize=16;fontColor=#14161a;" parent="DUqm6WeY4P3lKgYE2ZcJ-81" vertex="1" connectable="0">
          <mxGeometry x="0.1333" y="3" relative="1" as="geometry">
            <mxPoint as="offset" />
          </mxGeometry>
        </mxCell>
        <mxCell id="DUqm6WeY4P3lKgYE2ZcJ-83" value="用户" style="points=[[0.35,0,0],[0.98,0.51,0],[1,0.71,0],[0.67,1,0],[0,0.795,0],[0,0.65,0]];verticalLabelPosition=bottom;sketch=0;html=1;verticalAlign=top;aspect=fixed;align=center;pointerEvents=1;shape=mxgraph.cisco19.user;fillColor=#005073;strokeColor=none;fontSize=16;fontColor=#14161a;" parent="DUqm6WeY4P3lKgYE2ZcJ-80" vertex="1">
          <mxGeometry x="80" y="70" width="50" height="50" as="geometry" />
        </mxCell>
        <mxCell id="DUqm6WeY4P3lKgYE2ZcJ-84" value="" style="sketch=0;pointerEvents=1;shadow=0;dashed=0;html=1;strokeColor=none;fillColor=#434445;aspect=fixed;labelPosition=center;verticalLabelPosition=bottom;verticalAlign=top;align=center;outlineConnect=0;shape=mxgraph.vvd.web_browser;fontSize=16;fontColor=#14161a;" parent="DUqm6WeY4P3lKgYE2ZcJ-80" vertex="1">
          <mxGeometry x="668.97" y="65" width="84.51" height="60" as="geometry" />
        </mxCell>
        <mxCell id="DUqm6WeY4P3lKgYE2ZcJ-85" style="edgeStyle=orthogonalEdgeStyle;rounded=0;orthogonalLoop=1;jettySize=auto;html=1;entryX=0.5;entryY=1;entryDx=0;entryDy=0;fontSize=16;fontColor=#14161a;" parent="DUqm6WeY4P3lKgYE2ZcJ-2" source="DUqm6WeY4P3lKgYE2ZcJ-84" target="DUqm6WeY4P3lKgYE2ZcJ-63" edge="1">
          <mxGeometry relative="1" as="geometry">
            <mxPoint x="780" y="890" as="targetPoint" />
          </mxGeometry>
        </mxCell>
        <mxCell id="peeEBgyrgm-aAJhJXFA5-90" value="同步" style="edgeStyle=orthogonalEdgeStyle;rounded=0;orthogonalLoop=1;jettySize=auto;html=1;fontSize=16;endArrow=classic;endFill=1;" edge="1" parent="DUqm6WeY4P3lKgYE2ZcJ-2" source="peeEBgyrgm-aAJhJXFA5-85" target="DUqm6WeY4P3lKgYE2ZcJ-33">
          <mxGeometry relative="1" as="geometry" />
        </mxCell>
        <mxCell id="peeEBgyrgm-aAJhJXFA5-91" value="同步" style="edgeStyle=orthogonalEdgeStyle;rounded=0;orthogonalLoop=1;jettySize=auto;html=1;fontSize=16;endArrow=classic;endFill=1;" edge="1" parent="DUqm6WeY4P3lKgYE2ZcJ-2" source="peeEBgyrgm-aAJhJXFA5-85" target="DUqm6WeY4P3lKgYE2ZcJ-21">
          <mxGeometry relative="1" as="geometry" />
        </mxCell>
      </root>
    </mxGraphModel>
  </diagram>
</mxfile>
